# xmcd
#
# Track frame offsets: 
#        150
#        21864
#        37631
#        56682
#        80789
#        94237
#        112817
#        126560
#        150880
#        164651
#        189090
#        208417
#
# Disc length: 3015 seconds
#
# Revision: 1
# Processed by: cddbd v1.5.2PL0 Copyright (c) Steve Scherf et al.
# Submitted via: ExactAudioCopy v0.99pb3
#
DISCID=990bc50c
DTITLE=Curtis Salgado - Clean Getaway
DYEAR=2008
DGENRE=Blues
TTITLE0=Clean Getaway
TTITLE1=Both Sorry Over Nothin'
TTITLE2=Who's Lovin' You
TTITLE3=My Confessions
TTITLE4=What's Up With That
TTITLE5=Alone
TTITLE6=I Don't Want To Discuss It
TTITLE7=20 Years Of B.B. King
TTITLE8=Heartache
TTITLE9=Let's Get Married
TTITLE10=Drivin' In The Drivin' Rain
TTITLE11=Bottle Of Red Wine
EXTD=
EXTT0=
EXTT1=
EXTT2=
EXTT3=
EXTT4=
EXTT5=
EXTT6=
EXTT7=
EXTT8=
EXTT9=
EXTT10=
EXTT11=
PLAYORDER=
